<svg width="62" height="63" viewBox="0 0 62 63" fill="none" xmlns="http://www.w3.org/2000/svg">
<path d="M57.7725 34.3184H50.7271V61.7956H55.6589C56.4063 61.7956 57.1231 61.4987 57.6516 60.9702C58.1801 60.4417 58.4771 59.7249 58.4771 58.9774V35.0229C58.4771 34.836 58.4028 34.6568 58.2707 34.5247C58.1386 34.3926 57.9594 34.3184 57.7725 34.3184Z" fill="#379553"/>
<path d="M54.9548 8.9541H50.0229V61.795H55.6593V9.65865C55.6593 9.47179 55.5851 9.29259 55.453 9.16046C55.3208 9.02833 55.1416 8.9541 54.9548 8.9541Z" fill="#2C7743"/>
<path d="M50.7272 4.72754H46.5C46.1108 4.72754 45.7954 5.04297 45.7954 5.43208V30.0912C45.7954 30.4803 46.1108 30.7957 46.5 30.7957H50.7272C51.1163 30.7957 51.4318 30.4803 51.4318 30.0912V5.43208C51.4318 5.04297 51.1163 4.72754 50.7272 4.72754Z" fill="#1C4A2A"/>
<path d="M46.5 1.2041H14.7955L8.45459 7.54501V20.2268C8.45459 20.4137 8.52882 20.5929 8.66095 20.725C8.79307 20.8571 8.97228 20.9314 9.15914 20.9314H19.4948C20.0515 20.9296 20.596 21.0939 21.0588 21.4032C21.5216 21.7125 21.8816 22.1529 22.0928 22.6679L24.7137 28.9525C24.7672 29.0808 24.8575 29.1904 24.9731 29.2675C25.0888 29.3447 25.2247 29.3858 25.3637 29.3859H46.5C46.6869 29.3859 46.8661 29.3117 46.9982 29.1796C47.1304 29.0474 47.2046 28.8682 47.2046 28.6814V1.90865C47.2046 1.72179 47.1304 1.54259 46.9982 1.41046C46.8661 1.27833 46.6869 1.2041 46.5 1.2041Z" fill="#2C7743"/>
<path d="M26.0141 28.4104L23.3947 22.1239C23.075 21.3526 22.5334 20.6937 21.8387 20.2305C21.144 19.7674 20.3275 19.521 19.4925 19.5225H7.04568C6.11173 19.5236 5.21635 19.8951 4.55595 20.5555C3.89555 21.2159 3.52405 22.1112 3.52295 23.0452V28.6816C3.52295 28.8684 3.59718 29.0476 3.72931 29.1797C3.86143 29.3119 4.04064 29.3861 4.22749 29.3861H25.3639C25.4799 29.3861 25.594 29.3574 25.6963 29.3027C25.7986 29.248 25.8857 29.1688 25.9501 29.0723C26.0144 28.9758 26.0539 28.8648 26.0651 28.7494C26.0762 28.6339 26.0587 28.5175 26.0141 28.4104Z" fill="#379553"/>
<path d="M52.8411 58.9775V30.7957C52.8411 30.0483 52.5442 29.3315 52.0157 28.803C51.4872 28.2745 50.7704 27.9775 50.0229 27.9775H3.52295V58.9775C3.52295 59.725 3.81986 60.4418 4.34838 60.9703C4.87689 61.4988 5.5937 61.7957 6.34113 61.7957H55.6593C54.9119 61.7957 54.1951 61.4988 53.6666 60.9703C53.138 60.4418 52.8411 59.725 52.8411 58.9775Z" fill="#DAF1E1"/>
<path d="M48.6136 31.5H7.74996C7.36085 31.5 7.04541 31.8154 7.04541 32.2045V57.5682C7.04541 57.9573 7.36085 58.2727 7.74996 58.2727H48.6136C49.0027 58.2727 49.3181 57.9573 49.3181 57.5682V32.2045C49.3181 31.8154 49.0027 31.5 48.6136 31.5Z" fill="#FFD35C"/>
<path d="M38.8958 36.2856C38.8304 36.2201 38.7527 36.1682 38.6673 36.1328C38.5818 36.0973 38.4902 36.0791 38.3977 36.0791C38.3051 36.0791 38.2135 36.0973 38.1281 36.1328C38.0426 36.1682 37.9649 36.2201 37.8995 36.2856L25.9223 48.2628C25.8568 48.3282 25.8049 48.4059 25.7695 48.4913C25.7341 48.5768 25.7158 48.6684 25.7158 48.7609C25.7158 48.8535 25.7341 48.9451 25.7695 49.0305C25.8049 49.116 25.8568 49.1937 25.9223 49.2591L34.9352 58.2723H48.6136C48.8004 58.2723 48.9796 58.1981 49.1118 58.066C49.2439 57.9338 49.3181 57.7546 49.3181 57.5678V46.7078L38.8958 36.2856Z" fill="#1C4A2A"/>
<path d="M26.7728 41.3639C28.3292 41.3639 29.591 40.1022 29.591 38.5457C29.591 36.9893 28.3292 35.7275 26.7728 35.7275C25.2163 35.7275 23.9546 36.9893 23.9546 38.5457C23.9546 40.1022 25.2163 41.3639 26.7728 41.3639Z" fill="#CC9600"/>
<path d="M42.9771 20.2276H26.068C25.8811 20.2276 25.7019 20.1534 25.5698 20.0213C25.4376 19.8891 25.3634 19.7099 25.3634 19.5231C25.3634 19.3362 25.4376 19.157 25.5698 19.0249C25.7019 18.8928 25.8811 18.8185 26.068 18.8185H42.9771C43.1639 18.8185 43.3431 18.8928 43.4752 19.0249C43.6074 19.157 43.6816 19.3362 43.6816 19.5231C43.6816 19.7099 43.6074 19.8891 43.4752 20.0213C43.3431 20.1534 43.1639 20.2276 42.9771 20.2276ZM42.9771 16.0004H12.6816C12.4947 16.0004 12.3155 15.9261 12.1834 15.794C12.0513 15.6619 11.9771 15.4827 11.9771 15.2958C11.9771 15.109 12.0513 14.9297 12.1834 14.7976C12.3155 14.6655 12.4947 14.5913 12.6816 14.5913H42.9771C43.1639 14.5913 43.3431 14.6655 43.4752 14.7976C43.6074 14.9297 43.6816 15.109 43.6816 15.2958C43.6816 15.4827 43.6074 15.6619 43.4752 15.794C43.3431 15.9261 43.1639 16.0004 42.9771 16.0004ZM42.9771 24.4549H28.8861C28.6993 24.4549 28.5201 24.3807 28.388 24.2485C28.2558 24.1164 28.1816 23.9372 28.1816 23.7504C28.1816 23.5635 28.2558 23.3843 28.388 23.2522C28.5201 23.12 28.6993 23.0458 28.8861 23.0458H42.9771C43.1639 23.0458 43.3431 23.12 43.4752 23.2522C43.6074 23.3843 43.6816 23.5635 43.6816 23.7504C43.6816 23.9372 43.6074 24.1164 43.4752 24.2485C43.3431 24.3807 43.1639 24.4549 42.9771 24.4549ZM42.9771 11.7731H12.6816C12.4947 11.7731 12.3155 11.6989 12.1834 11.5667C12.0513 11.4346 11.9771 11.2554 11.9771 11.0685C11.9771 10.8817 12.0513 10.7025 12.1834 10.5703C12.3155 10.4382 12.4947 10.364 12.6816 10.364H42.9771C43.1639 10.364 43.3431 10.4382 43.4752 10.5703C43.6074 10.7025 43.6816 10.8817 43.6816 11.0685C43.6816 11.2554 43.6074 11.4346 43.4752 11.5667C43.3431 11.6989 43.1639 11.7731 42.9771 11.7731ZM42.9771 7.54581H18.318C18.1311 7.54581 17.9519 7.47158 17.8198 7.33945C17.6876 7.20732 17.6134 7.02812 17.6134 6.84126C17.6134 6.65441 17.6876 6.4752 17.8198 6.34308C17.9519 6.21095 18.1311 6.13672 18.318 6.13672H42.9771C43.1639 6.13672 43.3431 6.21095 43.4752 6.34308C43.6074 6.4752 43.6816 6.65441 43.6816 6.84126C43.6816 7.02812 43.6074 7.20732 43.4752 7.33945C43.3431 7.47158 43.1639 7.54581 42.9771 7.54581Z" fill="#1C4A2A"/>
<path d="M14.7955 1.2041V7.54501H8.45459L14.7955 1.2041Z" fill="#1C4A2A"/>
<path d="M19.8731 41.2182C19.8077 41.1527 19.73 41.1008 19.6446 41.0654C19.5591 41.03 19.4675 41.0117 19.375 41.0117C19.2824 41.0117 19.1908 41.03 19.1054 41.0654C19.0199 41.1008 18.9422 41.1527 18.8768 41.2182L7.04541 53.0495V57.5686C7.04541 57.7554 7.11964 57.9346 7.25177 58.0667C7.38389 58.1989 7.5631 58.2731 7.74996 58.2731H36.9281L19.8731 41.2182Z" fill="#2C7743"/>
</svg>
